<!DOCTYPE svg PUBLIC "-//W3C//DTD SVG 1.1//EN" "http://www.w3.org/Graphics/SVG/1.1/DTD/svg11.dtd">
<!-- Uploaded to: SVG Repo, www.svgrepo.com, Transformed by: SVG Repo Mixer Tools -->
<svg version="1.1" id="Icons" xmlns="http://www.w3.org/2000/svg" xmlns:xlink="http://www.w3.org/1999/xlink" viewBox="0 0 32.00 32.00" xml:space="preserve" width="64px" height="64px" fill="#75a3ff" stroke="#75a3ff">
<g id="SVGRepo_bgCarrier" stroke-width="0"/>
<g id="SVGRepo_tracerCarrier" stroke-linecap="round" stroke-linejoin="round"/>
<g id="SVGRepo_iconCarrier"> <style type="text/css"> .st0{fill:none;stroke:#57a0ff;stroke-width:2;stroke-linecap:round;stroke-linejoin:round;stroke-miterlimit:10;} </style> <path d="M2,1C1.4,1,1,1.4,1,2v13h14V1H2z M11,9H9v2c0,0.6-0.4,1-1,1s-1-0.4-1-1V9H5C4.4,9,4,8.6,4,8s0.4-1,1-1h2V5c0-0.6,0.4-1,1-1 s1,0.4,1,1v2h2c0.6,0,1,0.4,1,1S11.6,9,11,9z"/> <path d="M1,17v13c0,0.6,0.4,1,1,1h13V17H1z M10.8,25.4c0.4,0.4,0.4,1,0,1.4c-0.2,0.2-0.5,0.3-0.7,0.3S9.6,27,9.4,26.8L8,25.4 l-1.4,1.4c-0.2,0.2-0.5,0.3-0.7,0.3S5.4,27,5.2,26.8c-0.4-0.4-0.4-1,0-1.4L6.6,24l-1.4-1.4c-0.4-0.4-0.4-1,0-1.4 c0.4-0.4,1-0.4,1.4,0L8,22.6l1.4-1.4c0.4-0.4,1-0.4,1.4,0c0.4,0.4,0.4,1,0,1.4L9.4,24L10.8,25.4z"/> <path d="M30,1H17v14h14V2C31,1.4,30.6,1,30,1z M27,9h-6c-0.6,0-1-0.4-1-1s0.4-1,1-1h6c0.6,0,1,0.4,1,1S27.6,9,27,9z"/> <path d="M17,17v14h13c0.6,0,1-0.4,1-1V17H17z M27,27h-6c-0.6,0-1-0.4-1-1s0.4-1,1-1h6c0.6,0,1,0.4,1,1S27.6,27,27,27z M27,23h-6 c-0.6,0-1-0.4-1-1s0.4-1,1-1h6c0.6,0,1,0.4,1,1S27.6,23,27,23z"/> </g>
</svg>