<svg width="38" height="38" viewBox="0 0 38 38" fill="none" xmlns="http://www.w3.org/2000/svg">
<path d="M2.14286 1C1.45714 1 1 1.45714 1 2.14286V17H17V1H2.14286ZM12.4286 10.1429H10.1429V12.4286C10.1429 13.1143 9.68571 13.5714 9 13.5714C8.31429 13.5714 7.85714 13.1143 7.85714 12.4286V10.1429H5.57143C4.88571 10.1429 4.42857 9.68571 4.42857 9C4.42857 8.31429 4.88571 7.85714 5.57143 7.85714H7.85714V5.57143C7.85714 4.88571 8.31429 4.42857 9 4.42857C9.68571 4.42857 10.1429 4.88571 10.1429 5.57143V7.85714H12.4286C13.1143 7.85714 13.5714 8.31429 13.5714 9C13.5714 9.68571 13.1143 10.1429 12.4286 10.1429Z" fill="#75A3FF" stroke="#75A3FF" stroke-width="2"/>
<path d="M1 21V35.8571C1 36.5429 1.45714 37 2.14286 37H17V21H1ZM12.2 30.6C12.6571 31.0571 12.6571 31.7429 12.2 32.2C11.9714 32.4286 11.6286 32.5429 11.4 32.5429C11.1714 32.5429 10.8286 32.4286 10.6 32.2L9 30.6L7.4 32.2C7.17143 32.4286 6.82857 32.5429 6.6 32.5429C6.37143 32.5429 6.02857 32.4286 5.8 32.2C5.34286 31.7429 5.34286 31.0571 5.8 30.6L7.4 29L5.8 27.4C5.34286 26.9429 5.34286 26.2571 5.8 25.8C6.25714 25.3429 6.94286 25.3429 7.4 25.8L9 27.4L10.6 25.8C11.0571 25.3429 11.7429 25.3429 12.2 25.8C12.6571 26.2571 12.6571 26.9429 12.2 27.4L10.6 29L12.2 30.6Z" fill="#75A3FF" stroke="#75A3FF" stroke-width="2"/>
<path d="M35.8571 1H21V17H37V2.14286C37 1.45714 36.5429 1 35.8571 1ZM32.4286 10.1429H25.5714C24.8857 10.1429 24.4286 9.68571 24.4286 9C24.4286 8.31429 24.8857 7.85714 25.5714 7.85714H32.4286C33.1143 7.85714 33.5714 8.31429 33.5714 9C33.5714 9.68571 33.1143 10.1429 32.4286 10.1429Z" fill="#75A3FF" stroke="#75A3FF" stroke-width="2"/>
<path d="M21 21V37H35.8571C36.5429 37 37 36.5429 37 35.8571V21H21ZM32.4286 32.4286H25.5714C24.8857 32.4286 24.4286 31.9714 24.4286 31.2857C24.4286 30.6 24.8857 30.1429 25.5714 30.1429H32.4286C33.1143 30.1429 33.5714 30.6 33.5714 31.2857C33.5714 31.9714 33.1143 32.4286 32.4286 32.4286ZM32.4286 27.8571H25.5714C24.8857 27.8571 24.4286 27.4 24.4286 26.7143C24.4286 26.0286 24.8857 25.5714 25.5714 25.5714H32.4286C33.1143 25.5714 33.5714 26.0286 33.5714 26.7143C33.5714 27.4 33.1143 27.8571 32.4286 27.8571Z" fill="#75A3FF" stroke="#75A3FF" stroke-width="2"/>
</svg>
